<?xml version="1.0" encoding="UTF-8" standalone="no"?>
<svg
   xmlns:dc="http://purl.org/dc/elements/1.1/"
   xmlns:cc="http://creativecommons.org/ns#"
   xmlns:rdf="http://www.w3.org/1999/02/22-rdf-syntax-ns#"
   xmlns:svg="http://www.w3.org/2000/svg"
   xmlns="http://www.w3.org/2000/svg"
   xmlns:sodipodi="http://sodipodi.sourceforge.net/DTD/sodipodi-0.dtd"
   xmlns:inkscape="http://www.inkscape.org/namespaces/inkscape"
   width="81"
   height="80"
   viewBox="0 0 81 80"
   version="1.1"
   id="svg94"
   sodipodi:docname="pluginIcon.svg"
   inkscape:version="1.0.2 (e86c870879, 2021-01-15, custom)">
  <metadata
     id="metadata98">
    <rdf:RDF>
      <cc:Work
         rdf:about="">
        <dc:format>image/svg+xml</dc:format>
        <dc:type
           rdf:resource="http://purl.org/dc/dcmitype/StillImage" />
      </cc:Work>
    </rdf:RDF>
  </metadata>
  <sodipodi:namedview
     pagecolor="#ffffff"
     bordercolor="#666666"
     borderopacity="1"
     objecttolerance="10"
     gridtolerance="10"
     guidetolerance="10"
     inkscape:pageopacity="0"
     inkscape:pageshadow="2"
     inkscape:window-width="1920"
     inkscape:window-height="1021"
     id="namedview96"
     showgrid="false"
     inkscape:zoom="2.7524473"
     inkscape:cx="40.5"
     inkscape:cy="34.208552"
     inkscape:window-x="0"
     inkscape:window-y="0"
     inkscape:window-maximized="1"
     inkscape:current-layer="g90"
     inkscape:document-rotation="0" />
  <defs
     id="defs72">
    <linearGradient
       id="pluginsdk_80-a"
       x1="-.031%"
       x2="100.053%"
       y1="49.963%"
       y2="49.963%">
      <stop
         offset="25.81%"
         stop-color="#F97A12"
         id="stop2" />
      <stop
         offset="45.91%"
         stop-color="#B07B58"
         id="stop4" />
      <stop
         offset="72.41%"
         stop-color="#577BAE"
         id="stop6" />
      <stop
         offset="91.05%"
         stop-color="#1E7CE5"
         id="stop8" />
      <stop
         offset="100%"
         stop-color="#087CFA"
         id="stop10" />
    </linearGradient>
    <linearGradient
       id="pluginsdk_80-b"
       x1="27.55%"
       x2="82.223%"
       y1="34.514%"
       y2="77.605%">
      <stop
         offset="0%"
         stop-color="#F97A12"
         id="stop13" />
      <stop
         offset="7.18%"
         stop-color="#CB7A3E"
         id="stop15" />
      <stop
         offset="15.41%"
         stop-color="#9E7B6A"
         id="stop17" />
      <stop
         offset="24.2%"
         stop-color="#757B91"
         id="stop19" />
      <stop
         offset="33.44%"
         stop-color="#537BB1"
         id="stop21" />
      <stop
         offset="43.24%"
         stop-color="#387CCC"
         id="stop23" />
      <stop
         offset="53.81%"
         stop-color="#237CE0"
         id="stop25" />
      <stop
         offset="65.52%"
         stop-color="#147CEF"
         id="stop27" />
      <stop
         offset="79.25%"
         stop-color="#0B7CF7"
         id="stop29" />
      <stop
         offset="100%"
         stop-color="#087CFA"
         id="stop31" />
    </linearGradient>
    <linearGradient
       id="pluginsdk_80-c"
       x1="63.121%"
       x2="40.793%"
       y1="97.699%"
       y2="-6.587%">
      <stop
         offset="0%"
         stop-color="#FE315D"
         id="stop34" />
      <stop
         offset="7.84%"
         stop-color="#CB417E"
         id="stop36" />
      <stop
         offset="16.01%"
         stop-color="#9E4E9B"
         id="stop38" />
      <stop
         offset="24.74%"
         stop-color="#755BB4"
         id="stop40" />
      <stop
         offset="33.92%"
         stop-color="#5365CA"
         id="stop42" />
      <stop
         offset="43.65%"
         stop-color="#386DDB"
         id="stop44" />
      <stop
         offset="54.14%"
         stop-color="#2374E9"
         id="stop46" />
      <stop
         offset="65.76%"
         stop-color="#1478F3"
         id="stop48" />
      <stop
         offset="79.4%"
         stop-color="#0B7BF8"
         id="stop50" />
      <stop
         offset="100%"
         stop-color="#087CFA"
         id="stop52" />
    </linearGradient>
    <linearGradient
       id="pluginsdk_80-d"
       x1="25.331%"
       x2="93.854%"
       y1="24.119%"
       y2="132.621%">
      <stop
         offset="0%"
         stop-color="#FE315D"
         id="stop55" />
      <stop
         offset="4.023%"
         stop-color="#F63462"
         id="stop57" />
      <stop
         offset="10.37%"
         stop-color="#DF3A71"
         id="stop59" />
      <stop
         offset="16.67%"
         stop-color="#C24383"
         id="stop61" />
      <stop
         offset="29.12%"
         stop-color="#AD4A91"
         id="stop63" />
      <stop
         offset="54.98%"
         stop-color="#755BB4"
         id="stop65" />
      <stop
         offset="91.75%"
         stop-color="#1D76ED"
         id="stop67" />
      <stop
         offset="100%"
         stop-color="#087CFA"
         id="stop69" />
    </linearGradient>
  </defs>
  <g
     fill="none"
     fill-rule="evenodd"
     id="g92">
    <g
       fill-rule="nonzero"
       transform="translate(8 8)"
       id="g82"
       style="fill-opacity:1;fill:#087cfa">
      <path
         fill="url(#pluginsdk_80-a)"
         d="M6.08754566,64 L2.66453526e-15,59.1000946 L0,26.7918961 L30,38.6703369 L10.1403967,64 L6.08754566,64 Z"
         id="path74"
         style="fill-opacity:1;fill:#087cfa" />
      <path
         fill="url(#pluginsdk_80-b)"
         d="M20.9524706,64 L52.2740919,31.9159091 L37.6708832,0.460194805 L38.0580944,1.33226763e-15 L64,0 L64,64 L20.9524706,64 Z"
         id="path76"
         style="fill-opacity:1;fill:#087cfa" />
      <path
         fill="url(#pluginsdk_80-c)"
         d="M34.4123783,0 L64,0 L64,28.0366227 L49.0078336,44 L34,0.44696173 L34.4123783,0 Z"
         id="path78"
         style="fill-opacity:1;fill:#087cfa" />
      <path
         fill="url(#pluginsdk_80-d)"
         d="M30.3358775,64 L0,64 L0,49.9709549 L6.23437817,29.2830519 L0,27.1596093 L0,0 L39.4697238,0 L58,21.3844805 L30.5381317,63.9259091 L30.3358775,64 Z"
         id="path80"
         style="fill-opacity:1;fill:#087cfa" />
    </g>
    <g
       fill-rule="nonzero"
       transform="translate(12 12)"
       id="g90">
      <rect
         width="56"
         height="56"
         fill="#000"
         id="rect84" />
      <g
         id="SvgjsG1091"
         featurekey="nRdZyp-0"
         transform="matrix(0.262256,0,0,0.262256,0.4545266,19.241786)"
         fill="#34374c"
         style="fill:#ffffff;fill-opacity:1">
        <g
           id="g39"
           style="fill:#ffffff;fill-opacity:1">
          <g
             id="g5"
             style="fill:#ffffff;fill-opacity:1">
            <path
               d="M 56.583496,33.210937 H 28.827148 c -0.552246,0 -1,-0.447753 -1,-1 V 12.527344 C 27.827148,11.133789 28.960937,10 30.354492,10 h 24.70166 c 1.393555,0 2.527344,1.133789 2.527344,2.527344 v 19.683594 c 0,0.552246 -0.447754,0.999999 -1,0.999999 z m -26.756348,-2 H 55.583496 V 12.527344 C 55.583496,12.236328 55.347168,12 55.056152,12 h -24.70166 c -0.291015,0 -0.527344,0.236328 -0.527344,0.527344 z"
               id="path3"
               style="fill:#ffffff;fill-opacity:1" />
          </g>
          <g
             id="g9"
             style="fill:#ffffff;fill-opacity:1">
            <path
               d="m 55.241211,37.049316 h -25.0625 c -2.624024,0 -4.758789,-1.70996 -4.758789,-3.811523 v -1.026856 c 0,-0.552246 0.447754,-1 1,-1 H 59 c 0.552246,0 1,0.447754 1,1 v 1.026856 c 0,2.101563 -2.134766,3.811523 -4.758789,3.811523 z M 27.419922,33.210937 v 0.02686 c 0,0.981934 1.263183,1.811523 2.758789,1.811523 h 25.0625 C 56.736816,35.049316 58,34.219727 58,33.237793 v -0.02686 z"
               id="path7"
               style="fill:#ffffff;fill-opacity:1" />
          </g>
          <g
             id="g13"
             style="fill:#ffffff;fill-opacity:1">
            <path
               d="M 56.583496,33.210937 H 28.827148 c -0.552246,0 -1,-0.447753 -1,-1 V 12.527344 C 27.827148,11.133789 28.960937,10 30.354492,10 h 24.70166 c 1.393555,0 2.527344,1.133789 2.527344,2.527344 v 19.683594 c 0,0.552246 -0.447754,0.999999 -1,0.999999 z m -26.756348,-2 H 55.583496 V 12.527344 C 55.583496,12.236328 55.347168,12 55.056152,12 h -24.70166 c -0.291015,0 -0.527344,0.236328 -0.527344,0.527344 z"
               id="path11"
               style="fill:#ffffff;fill-opacity:1" />
          </g>
          <g
             id="g17"
             style="fill:#ffffff;fill-opacity:1">
            <path
               d="m 55.241211,37.049316 h -25.0625 c -2.624024,0 -4.758789,-1.70996 -4.758789,-3.811523 v -1.026856 c 0,-0.552246 0.447754,-1 1,-1 H 59 c 0.552246,0 1,0.447754 1,1 v 1.026856 c 0,2.101563 -2.134766,3.811523 -4.758789,3.811523 z M 27.419922,33.210937 v 0.02686 c 0,0.981934 1.263183,1.811523 2.758789,1.811523 h 25.0625 C 56.736816,35.049316 58,34.219727 58,33.237793 v -0.02686 z"
               id="path15"
               style="fill:#ffffff;fill-opacity:1" />
          </g>
          <g
             id="g21"
             style="fill:#ffffff;fill-opacity:1">
            <path
               d="M 51.552246,60 H 18.435547 C 13.78418,60 10,55.791016 10,50.617187 c 0,-5 3.534668,-9.099121 7.970215,-9.368652 0.999511,-5.819336 5.404785,-10.303223 10.762207,-10.812012 0.285644,-0.0249 0.559082,0.06738 0.767578,0.25586 0.208496,0.189453 0.327148,0.458008 0.327148,0.739746 v 0.778809 c 0,0.552246 -0.447754,1 -1,1 l -1.407226,0.02686 c 0,0.981934 1.263183,1.811524 2.758789,1.811524 H 48.95459 c 0.215332,0 0.425293,0.06982 0.598144,0.19873 2.040527,1.522461 3.543945,3.758301 4.277344,6.342773 C 57.44043,42.698242 60,46.388672 60,50.617187 60,55.791016 56.210449,60 51.552246,60 Z M 18.435547,43.234375 C 14.887207,43.234375 12,46.546387 12,50.617187 12,54.687988 14.887207,58 18.435547,58 H 51.552246 C 55.107422,58 58,54.687988 58,50.617187 c 0,-3.529296 -2.188965,-6.5708 -5.205566,-7.232421 -0.375977,-0.08252 -0.671875,-0.373536 -0.759278,-0.749024 -0.528808,-2.26123 -1.738769,-4.232422 -3.422363,-5.586426 H 30.178711 c -2.508301,0 -4.569824,-1.5625 -4.746582,-3.536132 -2.993652,1.645996 -5.176758,4.943359 -5.600098,8.855468 -0.03027,0.280274 -0.177734,0.534668 -0.405273,0.700684 -0.228027,0.166504 -0.515625,0.226562 -0.791504,0.171387 -0.02979,-0.0063 -0.12793,-0.0063 -0.199707,-0.0063 z"
               id="path19"
               style="fill:#ffffff;fill-opacity:1" />
          </g>
          <g
             id="g37"
             style="fill:#ffffff;fill-opacity:1">
            <g
               id="g31"
               style="fill:#ffffff;fill-opacity:1">
              <g
                 id="g25"
                 style="fill:#ffffff;fill-opacity:1">
                <path
                   d="m 48.65625,26.308594 c -0.255859,0 -0.511231,-0.09766 -0.706543,-0.292481 -0.390625,-0.390136 -0.391113,-1.023437 -9.77e-4,-1.414062 L 50.810547,21.736328 47.949219,18.875 c -0.390625,-0.390625 -0.390625,-1.023438 0,-1.414063 0.390625,-0.390625 1.023437,-0.390625 1.414062,0 l 3.567871,3.567872 c 0.390625,0.390136 0.390625,1.022949 4.89e-4,1.413574 l -3.567871,3.572754 c -0.195313,0.1958 -0.451172,0.293457 -0.70752,0.293457 z"
                   id="path23"
                   style="fill:#ffffff;fill-opacity:1" />
              </g>
              <g
                 id="g29"
                 style="fill:#ffffff;fill-opacity:1">
                <path
                   d="m 36.754394,26.308594 c -0.256347,0 -0.512207,-0.09766 -0.707519,-0.293457 l -3.567871,-3.572754 c -0.390137,-0.390625 -0.390137,-1.023438 4.88e-4,-1.413574 l 3.567871,-3.567871 c 0.390625,-0.390625 1.023438,-0.390625 1.414063,0 0.390625,0.390625 0.390625,1.023437 0,1.414062 l -2.861328,2.861328 2.861816,2.865723 c 0.390137,0.390625 0.390137,1.023926 -9.77e-4,1.414062 -0.195312,0.194824 -0.450683,0.292481 -0.706543,0.292481 z"
                   id="path27"
                   style="fill:#ffffff;fill-opacity:1" />
              </g>
            </g>
            <g
               id="g35"
               style="fill:#ffffff;fill-opacity:1">
              <path
                 d="m 39.239746,29.38623 c -0.155762,0 -0.313477,-0.03613 -0.461426,-0.113281 -0.489746,-0.255371 -0.679687,-0.858887 -0.424316,-1.349121 l 7.067871,-13.562012 c 0.255859,-0.489257 0.859375,-0.680175 1.349121,-0.424316 0.489746,0.255371 0.679688,0.858887 0.424316,1.349121 l -7.067871,13.562012 c -0.178222,0.341797 -0.526855,0.537597 -0.887695,0.537597 z"
                 id="path33"
                 style="fill:#ffffff;fill-opacity:1" />
            </g>
          </g>
        </g>
      </g>
      <g
         id="SvgjsG1092"
         featurekey="Q4qmbg-0"
         transform="matrix(1.0597165,0,0,1.0597165,17.865432,13.214777)"
         fill="#34374c"
         style="fill:#f1f3ff;fill-opacity:1">
        <path
           d="m 10.82,15.08 v 0.66 H 3.78 c 0,1.16 1.18,1.98 2.16,1.98 0.96,0 1.84,-0.38 2.3,-1.22 l 1.98,1.82 C 9.42,19.4 8.2,20.16 5.94,20.16 2.7,20.16 0.72,18 0.72,15.08 c 0,-2.92 1.92,-5.1 5.04,-5.1 3.12,0 5.06,2.14 5.06,5.1 z M 3.84,13.86 H 7.72 C 7.56,12.92 6.88,12.42 5.76,12.42 4.68,12.42 4.02,13 3.84,13.86 Z m 17.403896,0.5 V 20 h -2.96 v -5.64 c 0,-1.5 -0.4,-2.16 -1.56,-2.16 -1.2,0 -1.9,0.66 -1.9,2.16 V 20 h -2.96 v -9.88 h 2.96 v 0.94 c 0.76,-0.74 1.8,-1.08 2.66,-1.08 2.78,0 3.76,1.34 3.76,4.38 z M 27.787792,20 h -1.94 l -4.18,-9.88 h 3.06 l 2.08,5.64 c 0.68,-1.72 1.44,-3.98 2.08,-5.64 h 3.04 z"
           id="path42"
           style="fill:#f1f3ff;fill-opacity:1" />
      </g>
    </g>
  </g>
</svg>
