<?xml version="1.0" ?><!DOCTYPE svg  PUBLIC '-//W3C//DTD SVG 1.1//EN'  'http://www.w3.org/Graphics/SVG/1.1/DTD/svg11.dtd'><svg style="enable-background:new 0 0 500 500;" version="1.1" viewBox="0 0 500 500" xml:space="preserve" xmlns="http://www.w3.org/2000/svg" xmlns:xlink="http://www.w3.org/1999/xlink"><g id="window-api-coding-configuration"><g><circle cx="250" cy="250" r="250" style="fill:#F4F1F0;"/><g id="_x32_"><g><polygon points="137.188,217.944 155.141,235.896 137.188,253.841 144.892,261.551 170.549,235.896       144.892,210.24     " style="fill:#675F58;"/><rect height="10.907" style="fill:#675F58;" width="32.702" x="184.641" y="224.989"/></g><g><path d="M279.764,325.531H119.992c-5.645-0.011-10.335-4.698-10.349-10.362V183.61h217.386v43.229h11.192      c0.418,0,0.819,0.049,1.221,0.117v-57.943c-0.011-12.562-10.205-22.746-22.765-22.776H119.992      c-12.562,0.03-22.746,10.213-22.77,22.776v146.156c0.024,12.571,10.208,22.76,22.77,22.776h162.744l-2.338-2.333      C277.696,332.965,277.441,328.548,279.764,325.531z M314.264,160.835c2.858,0,5.176,2.319,5.176,5.181      c0,2.856-2.317,5.176-5.176,5.176c-2.859,0-5.176-2.319-5.176-5.176C309.088,163.154,311.404,160.835,314.264,160.835z       M273.584,161.144h25.456c2.69,0,4.866,2.186,4.866,4.872c0,2.68-2.176,4.866-4.866,4.866h-25.456      c-2.686,0-4.866-2.186-4.866-4.866C268.718,163.33,270.898,161.144,273.584,161.144z" style="fill:#675F58;"/><g><path d="M349.821,266.075c-2.415-0.678-4.976-1.068-7.607-1.068c-1.649,0-3.244,0.168-4.802,0.434       c-5.87,1.009-11.111,3.798-15.153,7.823c-5.104,5.1-8.246,12.158-8.246,19.943c0,7.791,3.142,14.839,8.246,19.944       c3.662,3.651,8.312,6.282,13.515,7.486c2.073,0.488,4.21,0.771,6.44,0.771c2.387,0,4.692-0.331,6.9-0.884       c5.014-1.265,9.495-3.831,13.043-7.373c5.105-5.105,8.263-12.153,8.263-19.944c0-7.785-3.157-14.844-8.263-19.943       C358.778,269.895,354.547,267.394,349.821,266.075z M349.821,300.456c-1.927,2.007-4.617,3.276-7.607,3.276       c-1.747,0-3.369-0.461-4.802-1.215c-3.396-1.747-5.718-5.241-5.718-9.311c0-4.079,2.321-7.573,5.718-9.32       c1.433-0.749,3.055-1.204,4.802-1.204c2.989,0,5.68,1.27,7.607,3.271c1.807,1.888,2.935,4.433,2.935,7.253       C352.756,296.018,351.628,298.557,349.821,300.456z" style="fill:#675F58;"/><path d="M401.117,284.972l-12.738-1.508c-1.21-5.795-3.51-11.209-6.651-16.005l7.953-10.08       c0.57-0.711,0.511-1.832-0.141-2.477l-9.028-9.024c-0.64-0.641-1.741-0.711-2.484-0.146l-10.069,7.953       c-4.807-3.13-10.2-5.42-15.999-6.632l-1.509-12.752c-0.049-0.456-0.287-0.868-0.629-1.166       c-0.331-0.301-0.766-0.483-1.221-0.483h-11.188h-1.584c-0.9,0-1.736,0.744-1.845,1.649l-1.508,12.752       c-5.806,1.212-11.204,3.502-16.005,6.632l-10.086-7.953c-0.711-0.564-1.823-0.494-2.485,0.146l-9.011,9.024       c-0.651,0.645-0.732,1.767-0.142,2.477l7.943,10.08c-3.137,4.796-5.426,10.21-6.647,16.005l-12.733,1.508       c-0.911,0.108-1.649,0.944-1.649,1.855v12.761c0,0.906,0.738,1.747,1.649,1.855l12.733,1.497       c1.221,5.816,3.51,11.198,6.647,16.016l-5.188,6.575l-2.756,3.5c-0.591,0.732-0.51,1.839,0.142,2.474l6.429,6.44l0.136,0.135       l2.446,2.453c0.651,0.646,1.774,0.71,2.496,0.141l3.288-2.594l0.151-0.135l6.636-5.225c3.342,2.185,6.982,3.911,10.829,5.202       c0.135,0.049,0.271,0.114,0.401,0.163c1.567,0.499,3.136,0.944,4.775,1.286l1.508,12.738c0.108,0.906,0.944,1.649,1.845,1.655       l12.771-0.006c0.9,0.006,1.747-0.743,1.85-1.649l1.509-12.738c1.622-0.342,3.195-0.787,4.758-1.286       c3.998-1.302,7.779-3.104,11.241-5.365l6.77,5.349l3.299,2.604c0.743,0.569,1.845,0.505,2.484-0.141l2.469-2.464l6.56-6.564       c0.651-0.635,0.711-1.741,0.141-2.474l-7.953-10.075c3.142-4.817,5.441-10.199,6.651-16.016l12.738-1.497       c0.901-0.108,1.66-0.949,1.66-1.855v-12.761C402.777,285.916,402.019,285.08,401.117,284.972z M346.478,326.877       c-1.404,0.174-2.82,0.299-4.264,0.299c-4.237,0-8.252-0.798-11.984-2.208c-12.842-4.861-21.984-17.232-21.984-31.761       c0-17.127,12.685-31.255,29.167-33.594c1.568-0.222,3.163-0.374,4.802-0.374c2.62,0,5.148,0.325,7.607,0.885       c15.088,3.467,26.356,16.948,26.356,33.083C376.178,310.515,363.216,324.772,346.478,326.877z" style="fill:#FF931E;"/></g></g></g></g></g><g id="Layer_1"/></svg>